<svg width="168" height="27" viewBox="0 0 168 27" fill="none" xmlns="http://www.w3.org/2000/svg">
<path d="M11.962 8.4668L0.992004 2.91455C0.451004 2.64079 0 2.84013 0 3.36836V6.6947L12.372 11.3601V9.27496C12.372 8.9426 12.191 8.58209 11.962 8.4668Z" fill="#D9C156"/>
<path d="M7.373 19.2078L14.934 19.2035C15.103 19.2035 15.238 18.9722 15.238 18.6865V16.8889L6.73999 15.7959V18.4447C6.73999 18.8689 7.027 19.2082 7.373 19.2078Z" fill="#D9C156"/>
<path d="M0 8.6709V11.9969C0 12.5251 0.451004 13.0379 0.992004 13.1404L15.238 15.8213V14.0238C15.238 13.7385 15.103 13.4639 14.934 13.4103L0 8.6709Z" fill="#D9C156"/>
<path d="M38.454 26.576C38.182 26.576 37.83 26.528 37.398 26.432C36.982 26.336 36.542 26.176 36.078 25.952C35.63 25.728 35.222 25.424 34.854 25.04L28.446 18.488C28.35 19.288 28.27 20.08 28.206 20.864C28.142 21.648 28.086 22.344 28.038 22.952C28.022 23.096 27.966 23.192 27.87 23.24C27.774 23.288 27.654 23.312 27.51 23.312C27.254 23.312 26.958 23.272 26.622 23.192C26.302 23.112 25.99 22.96 25.686 22.736C25.382 22.496 25.142 22.16 24.966 21.728C24.79 21.28 24.726 20.688 24.774 19.952C24.838 19.104 24.91 18.112 24.99 16.976C25.07 15.84 25.142 14.632 25.206 13.352C25.27 12.072 25.326 10.792 25.374 9.512C25.422 8.232 25.446 7.024 25.446 5.888C25.478 5.76 25.574 5.672 25.734 5.624C25.894 5.56 26.078 5.528 26.286 5.528C26.67 5.528 27.062 5.624 27.462 5.816C27.878 5.992 28.222 6.304 28.494 6.752C28.782 7.184 28.926 7.792 28.926 8.576C28.926 9.264 28.894 10.016 28.83 10.832C28.766 11.632 28.71 12.496 28.662 13.424C29.462 12.544 30.214 11.624 30.918 10.664C31.622 9.704 32.246 8.776 32.79 7.88C33.35 6.984 33.798 6.192 34.134 5.504C35.014 5.504 35.622 5.72 35.958 6.152C36.31 6.584 36.486 7.176 36.486 7.928C36.486 8.328 36.318 8.832 35.982 9.44C35.646 10.032 35.19 10.68 34.614 11.384C34.054 12.088 33.422 12.816 32.718 13.568C32.014 14.32 31.294 15.056 30.558 15.776L38.718 25.784C38.83 25.912 38.886 26.048 38.886 26.192C38.886 26.448 38.742 26.576 38.454 26.576ZM41.868 23.36C41.34 23.36 40.828 23.256 40.332 23.048C39.852 22.856 39.46 22.52 39.156 22.04C38.388 21.672 37.796 21.032 37.38 20.12C36.964 19.208 36.756 18.144 36.756 16.928C36.756 15.872 36.9 14.872 37.188 13.928C37.476 12.968 37.868 12.12 38.364 11.384C38.86 10.648 39.428 10.072 40.068 9.656C40.724 9.224 41.412 9.008 42.132 9.008C42.74 9.008 43.348 9.12 43.956 9.344C44.564 9.552 45.092 9.936 45.54 10.496C46.324 10.896 46.924 11.48 47.34 12.248C47.772 13.016 47.988 13.856 47.988 14.768C47.988 15.936 47.868 17.04 47.628 18.08C47.388 19.12 47.02 20.04 46.524 20.84C46.028 21.624 45.396 22.24 44.628 22.688C43.86 23.136 42.94 23.36 41.868 23.36ZM41.388 20.72C41.868 20.72 42.292 20.512 42.66 20.096C43.028 19.68 43.34 19.152 43.596 18.512C43.852 17.856 44.044 17.152 44.172 16.4C44.316 15.648 44.388 14.936 44.388 14.264C44.388 13.528 44.3 12.912 44.124 12.416C43.964 11.92 43.7 11.672 43.332 11.672C42.852 11.672 42.428 11.88 42.06 12.296C41.692 12.712 41.38 13.248 41.124 13.904C40.868 14.544 40.668 15.24 40.524 15.992C40.396 16.744 40.332 17.456 40.332 18.128C40.332 18.864 40.42 19.48 40.596 19.976C40.772 20.472 41.036 20.72 41.388 20.72ZM52.3843 23.336C51.9203 23.336 51.4723 23.216 51.0403 22.976C50.6243 22.736 50.2803 22.408 50.0083 21.992C49.7523 21.56 49.6243 21.072 49.6243 20.528C49.6243 19.936 49.6483 19.152 49.6963 18.176C49.7443 17.184 49.8003 16.088 49.8643 14.888C49.9443 13.688 50.0323 12.48 50.1283 11.264C50.2403 10.032 50.3523 8.872 50.4643 7.784C50.5763 6.68 50.6883 5.752 50.8003 5C50.8323 4.84 50.8723 4.704 50.9203 4.592C50.9843 4.464 51.1203 4.4 51.3283 4.4C51.6003 4.4 51.8963 4.464 52.2163 4.592C52.5523 4.72 52.8723 4.896 53.1763 5.12C53.4963 5.344 53.7443 5.6 53.9203 5.888C54.0963 6.176 54.1603 6.48 54.1123 6.8C53.9843 7.664 53.8563 8.728 53.7283 9.992C53.6163 11.256 53.5123 12.592 53.4163 14C53.8003 13.536 54.2083 13.008 54.6403 12.416C55.0723 11.808 55.4723 11.224 55.8403 10.664C56.2243 10.088 56.5203 9.616 56.7283 9.248C56.9523 8.832 57.2564 8.624 57.6404 8.624C58.0564 8.624 58.4404 8.848 58.7923 9.296C59.1603 9.728 59.3443 10.272 59.3443 10.928C59.3443 11.12 59.3203 11.32 59.2724 11.528C59.2404 11.736 59.1764 11.952 59.0804 12.176C58.8084 12.848 58.4244 13.472 57.9284 14.048C57.4484 14.624 56.7844 15.296 55.9364 16.064C56.5443 17.36 57.3203 18.584 58.2644 19.736C59.2083 20.888 60.2164 22.056 61.2884 23.24C61.3684 23.304 61.4164 23.376 61.4324 23.456C61.4643 23.552 61.4803 23.64 61.4803 23.72C61.4803 23.832 61.4403 23.936 61.3603 24.032C61.2803 24.128 61.1603 24.176 61.0003 24.176C60.2164 24.176 59.4324 24.016 58.6484 23.696C57.8644 23.376 57.2004 22.904 56.6564 22.28C56.3363 21.928 55.9763 21.496 55.5763 20.984C55.1763 20.472 54.7683 19.944 54.3523 19.4C53.9363 18.84 53.5523 18.312 53.2003 17.816C53.1523 18.824 53.1123 19.784 53.0803 20.696C53.0483 21.592 53.0323 22.384 53.0323 23.072C53.0323 23.248 52.8163 23.336 52.3843 23.336ZM66.1493 23.36C65.6213 23.36 65.1093 23.256 64.6133 23.048C64.1333 22.856 63.7413 22.52 63.4373 22.04C62.6693 21.672 62.0773 21.032 61.6613 20.12C61.2453 19.208 61.0373 18.144 61.0373 16.928C61.0373 15.872 61.1813 14.872 61.4693 13.928C61.7573 12.968 62.1493 12.12 62.6453 11.384C63.1413 10.648 63.7093 10.072 64.3493 9.656C65.0053 9.224 65.6933 9.008 66.4133 9.008C67.0213 9.008 67.6293 9.12 68.2373 9.344C68.8453 9.552 69.3733 9.936 69.8213 10.496C70.6053 10.896 71.2053 11.48 71.6213 12.248C72.0533 13.016 72.2693 13.856 72.2693 14.768C72.2693 15.936 72.1493 17.04 71.9093 18.08C71.6693 19.12 71.3013 20.04 70.8053 20.84C70.3093 21.624 69.6773 22.24 68.9093 22.688C68.1413 23.136 67.2213 23.36 66.1493 23.36ZM65.6693 20.72C66.1493 20.72 66.5733 20.512 66.9413 20.096C67.3093 19.68 67.6213 19.152 67.8773 18.512C68.1333 17.856 68.3253 17.152 68.4533 16.4C68.5973 15.648 68.6693 14.936 68.6693 14.264C68.6693 13.528 68.5813 12.912 68.4053 12.416C68.2453 11.92 67.9813 11.672 67.6133 11.672C67.1333 11.672 66.7093 11.88 66.3413 12.296C65.9733 12.712 65.6613 13.248 65.4053 13.904C65.1493 14.544 64.9493 15.24 64.8053 15.992C64.6773 16.744 64.6133 17.456 64.6133 18.128C64.6133 18.864 64.7013 19.48 64.8773 19.976C65.0533 20.472 65.3173 20.72 65.6693 20.72Z" fill="white"/>
</svg>
